<?xml version="1.0" standalone="no"?>
<!DOCTYPE svg PUBLIC "-//W3C//DTD SVG 20010904//EN"
 "http://www.w3.org/TR/2001/REC-SVG-20010904/DTD/svg10.dtd">
<svg version="1.0" xmlns="http://www.w3.org/2000/svg"
 width="300.000000pt" height="45.000000pt" viewBox="0 0 300.000000 45.000000"
 preserveAspectRatio="xMidYMid meet">
<metadata>
Created by potrace 1.10, written by Peter Selinger 2001-2011
</metadata>
<g transform="translate(0.000000,45.000000) scale(0.050000,-0.050000)"
fill="#3d85c6" stroke="none">
<path d="M2681 878 c-77 -31 -80 -46 -81 -421 0 -464 -14 -445 326 -454 239
-6 251 -4 263 35 8 23 21 42 30 42 9 0 22 23 30 51 20 82 61 47 58 -50 l-2
-85 70 11 c141 23 145 36 145 445 l0 365 -53 42 c-66 51 -567 64 -567 14 0
-15 -19 -44 -43 -65 l-43 -38 12 65 c14 72 -36 87 -145 43z m599 -93 c0 -8
-26 -100 -58 -205 l-57 -190 -122 -6 c-68 -3 -123 -1 -123 5 0 11 95 345 110
386 10 27 250 37 250 10z m-150 -484 c4 -8 -4 -54 -18 -102 l-26 -89 -123 -6
c-132 -6 -134 -5 -101 98 12 37 24 78 28 90 7 24 225 32 240 9z"/>
<path d="M4280 720 l0 -140 120 0 c66 0 120 -7 120 -16 0 -16 -101 -318 -130
-389 -13 -31 -1 -35 93 -35 l108 0 87 275 c48 151 91 286 96 300 7 19 -31 25
-152 25 l-162 0 0 60 c0 58 -3 60 -90 60 l-90 0 0 -140z"/>
<path d="M45 726 c-44 -9 -45 -14 -45 -285 l0 -276 62 -12 c35 -7 71 -13 80
-13 9 0 19 74 22 165 l6 165 106 -165 c103 -161 107 -165 185 -165 l79 0 0
300 0 300 -80 0 -80 0 -1 -165 c0 -189 -2 -189 -144 43 -75 122 -86 128 -190
108z"/>
<path d="M620 442 l0 -292 235 0 235 0 6 65 7 65 -162 0 -161 0 0 60 0 60 140
0 140 0 0 60 0 60 -141 0 c-136 0 -142 2 -135 45 6 43 14 45 151 38 l145 -7 0
72 0 72 -230 -3 -230 -3 0 -292z"/>
<path d="M1141 705 c0 -19 26 -152 56 -295 l56 -260 87 0 87 0 45 176 c24 97
48 180 52 185 5 4 29 -77 54 -181 l46 -190 84 0 85 0 54 255 c29 140 59 276
66 301 12 44 8 46 -75 40 l-88 -6 -20 -144 c-27 -193 -38 -195 -83 -12 l-39
156 -81 6 -82 6 -35 -146 c-48 -201 -61 -203 -90 -17 l-25 161 -77 0 c-61 0
-78 -8 -77 -35z"/>
<path d="M2050 718 c-162 -93 -111 -268 93 -321 117 -30 153 -63 117 -107 -37
-45 -115 -37 -149 16 -28 43 -191 58 -191 17 1 -171 336 -248 463 -106 110
123 62 243 -119 295 -141 41 -173 63 -142 101 32 38 73 34 113 -13 41 -49 185
-57 185 -11 0 109 -252 197 -370 129z"/>
<path d="M3700 660 l0 -80 160 0 160 0 0 -220 0 -220 100 0 100 0 0 300 0 300
-260 0 -260 0 0 -80z"/>
<path d="M4878 656 c69 -93 75 -116 33 -116 -67 0 -111 -99 -111 -253 l0 -147
90 0 90 0 0 149 c0 199 21 201 122 11 l86 -160 96 0 c115 0 117 11 24 140 -52
72 -63 100 -41 100 79 0 131 85 136 220 l5 130 -94 6 -94 6 0 -141 c0 -176
-18 -177 -114 -1 l-76 140 -107 0 -106 0 61 -84z"/>
<path d="M5490 445 l0 -295 100 0 100 0 6 295 5 295 -105 0 -106 0 0 -295z"/>
<path d="M5800 438 l0 -303 63 13 c34 6 79 12 100 12 34 0 37 20 37 290 l0
290 -100 0 -100 0 0 -302z"/>
<path d="M3708 453 c-5 -15 -7 -89 -4 -165 l6 -138 95 -6 95 -6 0 171 0 171
-91 0 c-57 0 -94 -10 -101 -27z"/>
</g>
</svg>
